<?xml version="1.0" standalone="no"?>
<!DOCTYPE svg PUBLIC "-//W3C//DTD SVG 20010904//EN"
 "http://www.w3.org/TR/2001/REC-SVG-20010904/DTD/svg10.dtd">
<svg version="1.0" xmlns="http://www.w3.org/2000/svg"
 width="64.000000pt" height="64.000000pt" viewBox="0 0 64.000000 64.000000"
 preserveAspectRatio="xMidYMid meet">

<g transform="translate(0.000000,64.000000) scale(0.100000,-0.100000)"
fill="currentColor" stroke="none">
<path d="M520 614 l-31 -27 48 -49 48 -49 28 31 c34 39 35 72 1 99 -35 28 -56
26 -94 -5z"/>
<path d="M348 443 c-97 -100 -106 -112 -112 -156 -4 -27 -5 -51 -2 -54 2 -3
27 -2 54 2 46 6 56 13 158 116 l108 109 -44 45 c-24 25 -47 45 -50 45 -3 0
-54 -48 -112 -107z"/>
<path d="M25 506 l-25 -25 0 -216 c0 -288 -23 -265 263 -265 202 0 216 1 241
21 l27 21 -3 136 c-3 129 -4 137 -23 137 -19 0 -20 -8 -23 -125 -2 -84 -7
-127 -15 -132 -21 -13 -391 -10 -405 4 -18 18 -17 392 1 406 7 7 66 13 133 14
111 3 119 4 119 23 0 19 -8 20 -133 23 -129 3 -133 2 -157 -22z"/>
</g>
</svg>
